<svg xmlns="http://www.w3.org/2000/svg" xmlns:xlink="http://www.w3.org/1999/xlink" viewBox="0 0 84.6 227.76"><defs><style>.cls-1{opacity:0.3;}.cls-10,.cls-11,.cls-12,.cls-13,.cls-14,.cls-15,.cls-16,.cls-17,.cls-18,.cls-19,.cls-2,.cls-20,.cls-21,.cls-22,.cls-23,.cls-3,.cls-4,.cls-5,.cls-6,.cls-7,.cls-8,.cls-9{fill:none;stroke-miterlimit:10;stroke-width:5px;}.cls-2{stroke:url(#linear-gradient);}.cls-3{stroke:url(#linear-gradient-2);}.cls-4{stroke:url(#linear-gradient-3);}.cls-5{stroke:url(#linear-gradient-4);}.cls-6{stroke:url(#linear-gradient-5);}.cls-7{stroke:url(#linear-gradient-6);}.cls-8{stroke:url(#linear-gradient-7);}.cls-9{stroke:url(#linear-gradient-8);}.cls-10{stroke:url(#linear-gradient-9);}.cls-11{stroke:url(#linear-gradient-10);}.cls-12{stroke:url(#linear-gradient-11);}.cls-13{stroke:url(#linear-gradient-12);}.cls-14{stroke:url(#linear-gradient-13);}.cls-15{stroke:url(#linear-gradient-14);}.cls-16{stroke:url(#linear-gradient-15);}.cls-17{stroke:url(#linear-gradient-16);}.cls-18{stroke:url(#linear-gradient-17);}.cls-19{stroke:url(#linear-gradient-18);}.cls-20{stroke:url(#linear-gradient-19);}.cls-21{stroke:url(#linear-gradient-20);}.cls-22{stroke:url(#linear-gradient-21);}.cls-23{stroke:url(#linear-gradient-22);}</style><linearGradient id="linear-gradient" x1="69.99" y1="7.31" x2="84.6" y2="7.31" gradientUnits="userSpaceOnUse"><stop offset="0.02" stop-color="#45c8e2"/><stop offset="1" stop-color="#39b54a"/></linearGradient><linearGradient id="linear-gradient-2" x1="69.99" y1="48.64" x2="84.6" y2="48.64" xlink:href="#linear-gradient"/><linearGradient id="linear-gradient-3" x1="69.99" y1="89.98" x2="84.6" y2="89.98" xlink:href="#linear-gradient"/><linearGradient id="linear-gradient-4" x1="46.22" y1="28.88" x2="60.83" y2="28.88" xlink:href="#linear-gradient"/><linearGradient id="linear-gradient-5" x1="46.22" y1="70.22" x2="60.83" y2="70.22" xlink:href="#linear-gradient"/><linearGradient id="linear-gradient-6" x1="46.22" y1="111.55" x2="60.83" y2="111.55" xlink:href="#linear-gradient"/><linearGradient id="linear-gradient-7" x1="69.99" y1="135.79" x2="84.6" y2="135.79" xlink:href="#linear-gradient"/><linearGradient id="linear-gradient-8" x1="69.99" y1="177.12" x2="84.6" y2="177.12" xlink:href="#linear-gradient"/><linearGradient id="linear-gradient-9" x1="69.99" y1="218.46" x2="84.6" y2="218.46" xlink:href="#linear-gradient"/><linearGradient id="linear-gradient-10" x1="46.22" y1="157.36" x2="60.83" y2="157.36" xlink:href="#linear-gradient"/><linearGradient id="linear-gradient-11" x1="46.22" y1="198.7" x2="60.83" y2="198.7" xlink:href="#linear-gradient"/><linearGradient id="linear-gradient-12" x1="23.77" y1="9.31" x2="38.38" y2="9.31" xlink:href="#linear-gradient"/><linearGradient id="linear-gradient-13" x1="23.77" y1="50.64" x2="38.38" y2="50.64" xlink:href="#linear-gradient"/><linearGradient id="linear-gradient-14" x1="23.77" y1="91.98" x2="38.38" y2="91.98" xlink:href="#linear-gradient"/><linearGradient id="linear-gradient-15" x1="0" y1="30.88" x2="14.61" y2="30.88" xlink:href="#linear-gradient"/><linearGradient id="linear-gradient-16" x1="0" y1="72.22" x2="14.61" y2="72.22" xlink:href="#linear-gradient"/><linearGradient id="linear-gradient-17" x1="0" y1="113.55" x2="14.61" y2="113.55" xlink:href="#linear-gradient"/><linearGradient id="linear-gradient-18" x1="23.77" y1="137.79" x2="38.38" y2="137.79" xlink:href="#linear-gradient"/><linearGradient id="linear-gradient-19" x1="23.77" y1="179.12" x2="38.38" y2="179.12" xlink:href="#linear-gradient"/><linearGradient id="linear-gradient-20" x1="23.77" y1="220.46" x2="38.38" y2="220.46" xlink:href="#linear-gradient"/><linearGradient id="linear-gradient-21" x1="0" y1="159.36" x2="14.61" y2="159.36" xlink:href="#linear-gradient"/><linearGradient id="linear-gradient-22" x1="0" y1="200.7" x2="14.61" y2="200.7" xlink:href="#linear-gradient"/></defs><title>Many dots</title><g id="Layer_2" data-name="Layer 2"><g id="elements" class="cls-1"><circle class="cls-2" cx="77.29" cy="7.31" r="4.81"/><circle class="cls-3" cx="77.29" cy="48.64" r="4.81"/><circle class="cls-4" cx="77.29" cy="89.98" r="4.81"/><circle class="cls-5" cx="53.52" cy="28.88" r="4.81"/><circle class="cls-6" cx="53.52" cy="70.22" r="4.81"/><circle class="cls-7" cx="53.52" cy="111.55" r="4.81"/><circle class="cls-8" cx="77.29" cy="135.79" r="4.81"/><circle class="cls-9" cx="77.29" cy="177.12" r="4.81"/><circle class="cls-10" cx="77.29" cy="218.46" r="4.81"/><circle class="cls-11" cx="53.52" cy="157.36" r="4.81"/><circle class="cls-12" cx="53.52" cy="198.7" r="4.81"/><circle class="cls-13" cx="31.08" cy="9.31" r="4.81"/><circle class="cls-14" cx="31.08" cy="50.64" r="4.81"/><circle class="cls-15" cx="31.08" cy="91.98" r="4.81"/><circle class="cls-16" cx="7.31" cy="30.88" r="4.81"/><circle class="cls-17" cx="7.31" cy="72.22" r="4.81"/><circle class="cls-18" cx="7.31" cy="113.55" r="4.81"/><circle class="cls-19" cx="31.08" cy="137.79" r="4.81"/><circle class="cls-20" cx="31.08" cy="179.12" r="4.81"/><circle class="cls-21" cx="31.08" cy="220.46" r="4.81"/><circle class="cls-22" cx="7.31" cy="159.36" r="4.81"/><circle class="cls-23" cx="7.31" cy="200.7" r="4.81"/></g></g></svg>