<svg xmlns="http://www.w3.org/2000/svg" xmlns:xlink="http://www.w3.org/1999/xlink" viewBox="0 0 51.3 98.32"><defs><style>.cls-1{opacity:0.3;}.cls-2,.cls-3,.cls-4{fill:none;stroke-miterlimit:10;stroke-width:5px;fill-rule:evenodd;}.cls-2{stroke:url(#linear-gradient);}.cls-3{stroke:url(#linear-gradient-2);}.cls-4{stroke:url(#linear-gradient-3);}</style><linearGradient id="linear-gradient" y1="49.16" x2="14.35" y2="49.16" gradientUnits="userSpaceOnUse"><stop offset="0.02" stop-color="#45c8e2"/><stop offset="1" stop-color="#39b54a"/></linearGradient><linearGradient id="linear-gradient-2" x1="18.47" y1="49.16" x2="32.83" y2="49.16" xlink:href="#linear-gradient"/><linearGradient id="linear-gradient-3" x1="36.95" y1="49.16" x2="51.3" y2="49.16" xlink:href="#linear-gradient"/></defs><title>Waves</title><g id="Layer_2" data-name="Layer 2"><g id="elements" class="cls-1"><path class="cls-2" d="M11.85,1.76C9.8,3.83,2.08,7,2.52,19.19c.34,9.44,9.07,11.37,9.33,20.53.29,10.34-9.37,12.19-8.52,22.21C4,70.26,11,72.07,11.44,80.44,11.82,87.28,7.58,93,4.14,96.6"/><path class="cls-3" d="M30.33,1.76C28.27,3.83,20.55,7,21,19.19c.34,9.44,9.07,11.37,9.33,20.53C30.62,50.06,21,51.91,21.8,61.93c.71,8.33,7.65,10.14,8.11,18.51.38,6.83-3.86,12.54-7.3,16.15"/><path class="cls-4" d="M48.8,1.76C46.75,3.83,39,7,39.46,19.19c.34,9.44,9.07,11.37,9.33,20.53.29,10.34-9.37,12.19-8.52,22.21.71,8.33,7.65,10.14,8.11,18.51.38,6.83-3.86,12.54-7.3,16.15"/></g></g></svg>